<?xml version="1.0" encoding="UTF-8"?>
<svg id="Capa_2" data-name="Capa 2" xmlns="http://www.w3.org/2000/svg" viewBox="0 0 45 38.12">
  <defs>
    <style>
      .cls-1 {
        fill: #6b6b6b;
      }
    </style>
  </defs>
  <g id="Carro_de_la_compra" data-name="Carro de la compra">
    <path class="cls-1" d="M12.46,38.12c-1.84,0-3.33-1.49-3.33-3.33s1.49-3.33,3.33-3.33,3.33,1.49,3.33,3.33-1.49,3.33-3.33,3.33Zm0-4.66c-.73,0-1.33,.6-1.33,1.33s.6,1.33,1.33,1.33,1.33-.6,1.33-1.33-.6-1.33-1.33-1.33Z"/>
    <path class="cls-1" d="M33.52,38.12c-1.84,0-3.33-1.49-3.33-3.33s1.49-3.33,3.33-3.33,3.33,1.49,3.33,3.33-1.49,3.33-3.33,3.33Zm0-4.66c-.73,0-1.33,.6-1.33,1.33s.6,1.33,1.33,1.33,1.33-.6,1.33-1.33-.6-1.33-1.33-1.33Z"/>
    <path class="cls-1" d="M44,0h-7c-.55,0-1,.45-1,1V5H1c-.3,0-.58,.13-.77,.37S-.04,5.9,.02,6.2L3.85,25.2c.09,.47,.5,.8,.98,.8h31.17v3H8c-.55,0-1,.45-1,1s.45,1,1,1h29c.55,0,1-.45,1-1V2h6c.55,0,1-.45,1-1s-.45-1-1-1ZM5.65,24L2.22,7H36V24H5.65Z"/>
    <path class="cls-1" d="M21.55,18.7s-.03,0-.05,0l-3.1-.83c-.07-.02-.12-.07-.14-.14l-.83-3.1c-.02-.07,0-.14,.05-.19l2.27-2.27s.09-.06,.14-.06c.02,0,.03,0,.05,0l3.1,.83c.07,.02,.12,.07,.14,.14l.83,3.1c.02,.07,0,.14-.05,.19l-2.27,2.27s-.09,.06-.14,.06h0Z"/>
    <polygon class="cls-1" points="19.05 17.07 18.44 14.79 20.11 13.12 22.39 13.73 23 16.01 21.33 17.68 19.05 17.07"/>
    <path class="cls-1" d="M27.34,15.51l-.94-3.51c-.3-1.11-1.16-1.98-2.27-2.27l-3.51-.94c-1.11-.3-2.29,.02-3.1,.83l-2.57,2.57c-.81,.81-1.13,2-.83,3.1l.91,3.38,1.06-1.81-.52-1.95c-.16-.59,.01-1.23,.44-1.66l2.57-2.57c.32-.32,.76-.5,1.22-.5,.15,0,.3,.02,.44,.06l3.51,.94c.59,.16,1.06,.62,1.22,1.22l.94,3.51c.16,.59-.01,1.23-.44,1.66l-2.57,2.57c-.32,.32-.76,.5-1.22,.5-.15,0-.3-.02-.44-.06l-1.95-.52-1.81,1.06,3.38,.91c1.11,.3,2.29-.02,3.1-.83l2.57-2.57c.81-.81,1.13-2,.83-3.1h0Z"/>
    <path class="cls-1" d="M13.89,22.33s-.09-.05-.1-.1l4.13-7.04s.06-.04,.1-.04c.01,0,.02,0,.04,0l2.22,.6s.09,.05,.1,.1l.6,2.22s0,.1-.04,.14l-7.04,4.13Z"/>
    <polygon class="cls-1" points="18.4 16.21 19.59 16.53 19.91 17.72 16.26 19.86 18.4 16.21"/>
  </g>
</svg>