<?xml version="1.0" standalone="no"?>
<!DOCTYPE svg PUBLIC "-//W3C//DTD SVG 1.1//EN" "http://www.w3.org/Graphics/SVG/1.1/DTD/svg11.dtd">
<svg xmlns="http://www.w3.org/2000/svg" id="Capa_1" data-name="Capa 1" viewBox="0 0 128.34 128.34" width="50" height="50">
  <defs>
    <style>
      .cls-1 {
        fill: #fbbb1c;
      }

      .cls-2 {
        fill: #ee7624;
      }
    </style>
  </defs>
  <path class="cls-2" d="M72.94,94.21c-.16,0-.32-.02-.48-.06l-29.15-7.81c-.63-.17-1.14-.68-1.31-1.31l-7.81-29.15c-.17-.63,.02-1.33,.48-1.79l21.34-21.34c.37-.37,.8-.54,1.31-.54,.16,0,.32,.02,.47,.06l29.16,7.81c.63,.17,1.14,.68,1.31,1.31l7.81,29.15c.17,.63-.02,1.33-.48,1.79l-21.34,21.34c-.37,.37-.8,.54-1.31,.54Z"/>
  <polygon class="cls-1" points="49.45 78.89 43.71 57.47 59.39 41.78 80.82 47.52 86.56 68.95 70.87 84.63 49.45 78.89"/>
  <path class="cls-2" d="M127.31,64.23l-8.84-33c-2.79-10.42-10.93-18.56-21.36-21.36L64.11,1.03c-10.42-2.79-21.54,.19-29.17,7.82L10.77,33.01C3.14,40.64,.16,51.76,2.96,62.18l8.51,31.75,9.98-17.04-4.92-18.35c-1.49-5.56,.11-11.53,4.18-15.6l24.16-24.16c3.05-3.05,7.11-4.73,11.42-4.73,1.41,0,2.81,.19,4.18,.55l33,8.84c5.56,1.49,9.93,5.87,11.42,11.42l8.84,33c1.49,5.56-.11,11.54-4.18,15.6l-24.16,24.16c-3.05,3.05-7.11,4.73-11.42,4.73-1.41,0-2.81-.19-4.18-.55l-18.35-4.92-17.04,9.98,31.75,8.51c10.42,2.79,21.54-.19,29.17-7.82l24.16-24.16c7.63-7.63,10.61-18.75,7.82-29.17Z"/>
  <path class="cls-2" d="M.94,128.34c-.45-.12-.82-.49-.94-.94L38.77,61.23c.26-.26,.57-.39,.94-.39,.11,0,.23,.02,.34,.05l20.88,5.59c.45,.12,.82,.49,.94,.94l5.59,20.87c.12,.45-.01,.96-.34,1.28L.94,128.34Z"/>
  <polygon class="cls-1" points="43.31 70.85 54.5 73.84 57.5 85.03 23.24 105.1 43.31 70.85"/>
</svg>